<svg xmlns="http://www.w3.org/2000/svg" xmlns:xlink="http://www.w3.org/1999/xlink" id="Layer_2" data-name="Layer 2" viewBox="0 0 475.33 86.77"><defs><style>      .cls-1 {        fill: #58b031;      }      .cls-1, .cls-2, .cls-3, .cls-4, .cls-5, .cls-6 {        stroke-width: 0px;      }      .cls-2 {        fill: #10672f;      }      .cls-3 {        fill: url(#Namnlös_övertoning_52);      }      .cls-4 {        fill: #1d1d1b;      }      .cls-5 {        fill: #2e9237;      }      .cls-6 {        fill: #bbe1eb;      }    </style><linearGradient id="Namnl&#xF6;s_&#xF6;vertoning_52" data-name="Namnl&#xF6;s &#xF6;vertoning 52" x1="99.31" y1="40.39" x2="347.01" y2="40.39" gradientUnits="userSpaceOnUse"><stop offset="0" stop-color="#7cba40"></stop><stop offset="1" stop-color="#10672f"></stop></linearGradient></defs><g id="Lager_1" data-name="Lager 1"><path class="cls-3" d="M99.31,24.31h12.6v5.58h.15c3.06-4.58,7.79-6.8,12.68-6.8,7.94,0,14.67,5.73,14.67,16.96v27.04h-12.76v-21.39c0-3.82,0-10.39-6.72-10.39-3.67,0-7.87,1.99-7.87,10.39v21.39h-12.76V24.31ZM145.82,55.4c0-7.94,6.03-11.15,13.21-12.68,10.24-2.21,12.37-2.6,12.37-5.19s-2.06-4.12-5.35-4.12c-2.98,0-5.88,1.45-7.18,5.96l-11.84-3.97c2.75-9.17,10.77-12.3,19.48-12.3,11.61,0,17.72,5.58,17.72,15.51v15.12c0,6.95.54,10.01,1.38,13.37h-12.68c-.53-1.37-.69-2.83-.69-4.43h-.15c-2.14,3.67-6.87,5.73-11.61,5.73-7.33,0-14.67-4.2-14.67-12.99ZM164.38,58.69c4.43,0,7.1-3.44,7.1-7.33v-2.6c-2.14.61-6.57,1.68-7.71,1.99-2.75.76-3.97,2.29-3.97,4.28,0,2.6,2.06,3.67,4.58,3.67ZM197.53,53.19v-17.26h-8.4v-11.61h8.4v-11.92h12.76v11.92h11v11.61h-11v12.53c0,3.74,0,8.33,5.73,8.33,2.06,0,3.9-.61,5.27-1.15v11.3c-2.14,1.07-4.96,1.45-7.94,1.45-15.81,0-15.81-11-15.81-15.2ZM227.93,51.12v-26.81h12.76v22.53c0,4.96,1.45,9.32,6.42,9.32,4.51,0,7.41-3.59,7.41-9.32v-22.53h12.76v29.41c0,7.1.54,10.01,1.38,13.37h-12.68c-.46-2.06-.76-3.36-.69-4.28h-.15c-2.06,3.06-5.42,5.58-11.76,5.58-10.08,0-15.43-6.26-15.43-17.26ZM276.66,24.31h12.6v5.8h.31c2.14-3.51,5.81-7.03,11.38-7.03,1.3,0,2.37.15,3.9.69v14.36c-1.83-.61-3.9-.76-5.19-.76-10.24,0-10.24,9.32-10.24,14.74v14.97h-12.76V24.31ZM307.21,55.4c0-7.94,6.03-11.15,13.21-12.68,10.24-2.21,12.37-2.6,12.37-5.19s-2.06-4.12-5.35-4.12c-2.98,0-5.88,1.45-7.18,5.96l-11.84-3.97c2.75-9.17,10.77-12.3,19.48-12.3,11.61,0,17.72,5.58,17.72,15.51v15.12c0,6.95.53,10.01,1.37,13.37h-12.68c-.54-1.37-.69-2.83-.69-4.43h-.15c-2.14,3.67-6.87,5.73-11.61,5.73-7.33,0-14.67-4.2-14.67-12.99ZM325.77,58.69c4.43,0,7.1-3.44,7.1-7.33v-2.6c-2.14.61-6.57,1.68-7.71,1.99-2.75.76-3.97,2.29-3.97,4.28,0,2.6,2.06,3.67,4.58,3.67Z"></path><path class="cls-4" d="M358.92,53.19v-17.26h-8.4v-11.61h8.4v-11.92h12.76v11.92h11v11.61h-11v12.53c0,3.74,0,8.33,5.73,8.33,2.06,0,3.9-.61,5.27-1.15v11.3c-2.14,1.07-4.96,1.45-7.94,1.45-15.81,0-15.81-11-15.81-15.2Z"></path><path class="cls-4" d="M389.32,51.12v-26.81h12.76v22.53c0,4.96,1.45,9.32,6.42,9.32,4.51,0,7.41-3.59,7.41-9.32v-22.53h12.76v29.41c0,7.1.53,10.01,1.37,13.37h-12.68c-.46-2.06-.76-3.36-.69-4.28h-.15c-2.06,3.06-5.42,5.58-11.76,5.58-10.08,0-15.43-6.26-15.43-17.26Z"></path><path class="cls-4" d="M435.53,55.4c0-7.94,6.03-11.15,13.21-12.68,10.24-2.21,12.37-2.6,12.37-5.19s-2.06-4.12-5.35-4.12c-2.98,0-5.88,1.45-7.18,5.96l-11.84-3.97c2.75-9.17,10.77-12.3,19.48-12.3,11.61,0,17.72,5.58,17.72,15.51v15.12c0,6.95.53,10.01,1.37,13.37h-12.68c-.54-1.37-.69-2.83-.69-4.43h-.15c-2.14,3.67-6.87,5.73-11.61,5.73-7.33,0-14.67-4.2-14.67-12.99ZM454.09,58.69c4.43,0,7.1-3.44,7.1-7.33v-2.6c-2.14.61-6.57,1.68-7.71,1.99-2.75.76-3.97,2.29-3.97,4.28,0,2.6,2.06,3.67,4.58,3.67Z"></path><path class="cls-6" d="M74.16,12.82s-.02.01-.02.01c-21.72,13.82-38.17,56.06-62.75,59.69l-.62-.54c-.86-.97-1.67-1.98-2.44-3.02-1.07-1.45-2.04-2.97-2.9-4.52-.2-.38-.41-.73-.6-1.11C1.66,57.2,0,50.41,0,43.38,0,19.46,19.46,0,43.38,0c11.69,0,22.73,4.73,30.78,12.82Z"></path><path class="cls-1" d="M86.48,38.29c-23.05,3.44-46.08,36.49-69.18,39.14-.24.02-.48.05-.72.06-.11-.08-.2-.16-.31-.24-.2-.16-.39-.32-.59-.48-.11-.09-.2-.18-.31-.26-.31-.28-.64-.55-.94-.84-.09-.08-.2-.16-.28-.25-1.19-1.07-2.32-2.22-3.38-3.45l.62.54c24.58-3.63,41.03-45.87,62.75-59.69,0,0,.01-.01.02-.01.08.08.16.16.25.25.24.25.48.49.72.75,2.28,2.45,4.32,5.19,6.01,8.17,2.25,3.94,3.84,8.23,4.74,12.69.08.38.15.74.21,1.12,0,.01,0,.04.01.05.06.36.13.74.19,1.12.01.07.02.15.02.22.06.36.11.73.15,1.11Z"></path><path class="cls-5" d="M86.76,42.45c.01.31.01.61.01.93h0c0,5.44-.98,10.69-2.92,15.67-.14.39-.29.78-.46,1.14-.01.02-.01.04-.02.06-.13.32-.26.62-.41.93-.02.07-.06.14-.09.21-.12.28-.25.55-.38.84-.01.02-.02.06-.05.08-18.31.74-36.64,17.76-54.95,21.37-.02,0-.04.01-.06.01-.25-.09-.48-.2-.73-.31h-.01c-.22-.08-.44-.18-.65-.27-.24-.09-.48-.2-.72-.31-.39-.18-.79-.38-1.18-.57-.22-.11-.45-.22-.66-.33-2.42-1.26-4.74-2.74-6.91-4.44-.11-.08-.2-.16-.31-.24.24-.02.48-.06.72-.08,23.12-2.71,46.22-36.12,69.34-39.98.06.36.11.73.15,1.11.15,1.38.26,2.77.28,4.17Z"></path><path class="cls-2" d="M82.96,61.18c-.02.07-.06.14-.09.21-.12.28-.25.55-.38.84-.01.02-.02.06-.05.08-.13.27-.27.53-.41.82-.42.81-.86,1.61-1.33,2.39,0,.01-.01.01-.01.01-.01.02-.02.05-.05.07-3.68,6.2-8.87,11.37-15.04,15.04-2.05,1.24-4.23,2.3-6.49,3.18-2.92,1.14-5.97,1.95-9.05,2.42-2.2.35-4.45.52-6.67.52-5.52,0-10.93-1.06-15.96-3.07-.25-.09-.48-.2-.73-.31.02,0,.06-.01.08-.01,18.73-3.57,37.45-21.5,56.18-22.2Z"></path></g></svg>