<svg xmlns="http://www.w3.org/2000/svg" viewBox="0 0 100 100">
  <path fill="#58b031" d="M74.16,12.82s-.02.01-.02.01c-21.72,13.82-38.17,56.06-62.75,59.69l-.62-.54c-.86-.97-1.67-1.98-2.44-3.02-1.07-1.45-2.04-2.97-2.9-4.52-.2-.38-.41-.73-.6-1.11C1.66,57.2,0,50.41,0,43.38,0,19.46,19.46,0,43.38,0c11.69,0,22.73,4.73,30.78,12.82Z"/>
  <path fill="#2e9237" d="M86.48,38.29c-23.05,3.44-46.08,36.49-69.18,39.14-.24.02-.48.05-.72.06-.11-.08-.2-.16-.31-.24-.2-.16-.39-.32-.59-.48-.11-.09-.2-.18-.31-.26-.31-.28-.64-.55-.94-.84-.09-.08-.2-.16-.28-.25-1.19-1.07-2.32-2.22-3.38-3.45l.62.54c24.58-3.63,41.03-45.87,62.75-59.69,0,0,.01-.01.02-.01.08.08.16.16.25.25.24.25.48.49.72.75,2.28,2.45,4.32,5.19,6.01,8.17,2.25,3.94,3.84,8.23,4.74,12.69.08.38.15.74.21,1.12,0,.01,0,.04.01.05.06.36.13.74.19,1.12.01.07.02.15.02.22.06.36.11.73.15,1.11Z"/>
</svg> 